<svg xmlns="http://www.w3.org/2000/svg" version="1.1" xmlns:xlink="http://www.w3.org/1999/xlink" xmlns:svgjs="http://svgjs.dev/svgjs" width="2000" height="1500" viewBox="0 0 2000 1500"><rect width="2000" height="1500" fill="#ececea"></rect><g transform="matrix(0.75,0,0,0.75,249.67638483965015,0.05154664723022506)"><svg viewBox="0 0 343 343" data-background-color="#ececea" preserveAspectRatio="xMidYMid meet" height="1999" width="2000" xmlns="http://www.w3.org/2000/svg" xmlns:xlink="http://www.w3.org/1999/xlink"><g id="tight-bounds" transform="matrix(1,0,0,1,0.07400000000001228,0.07400000000001228)"><svg viewBox="0 0 342.8515585177538 342.8515585177538" height="342.8515585177538" width="342.8515585177538"><g><svg></svg></g><g><svg viewBox="0 0 342.8515585177538 342.8515585177538" height="342.8515585177538" width="342.8515585177538"><g><path d="M0 171.426c0-94.676 76.75-171.426 171.426-171.426 94.676 0 171.426 76.75 171.426 171.426 0 94.676-76.75 171.426-171.426 171.426-94.676 0-171.426-76.75-171.426-171.426zM171.426 339.597c92.878 0 168.171-75.293 168.171-168.171 0-92.878-75.293-168.171-168.171-168.171-92.878 0-168.171 75.293-168.171 168.171 0 92.878 75.293 168.171 168.171 168.171z" data-fill-palette-color="tertiary" fill="#009b7d" stroke="transparent"></path><ellipse rx="164.56874808852183" ry="164.56874808852183" cx="171.4257792588769" cy="171.4257792588769" fill="#009b7d" stroke="transparent" stroke-width="0" fill-opacity="1" data-fill-palette-color="tertiary"></ellipse></g><g transform="matrix(1,0,0,1,64.84655864529836,108.47298886848276)"><svg viewBox="0 0 213.15844122715708 125.90558078078828" height="125.90558078078828" width="213.15844122715708"><g><svg viewBox="0 0 213.15844122715708 125.90558078078828" height="125.90558078078828" width="213.15844122715708"><g><svg viewBox="0 0 213.15844122715708 125.90558078078828" height="125.90558078078828" width="213.15844122715708"><g transform="matrix(1,0,0,1,0,89.8164124456697)"><svg viewBox="0 0 213.15844122715708 36.089168335118586" height="36.089168335118586" width="213.15844122715708"><g id="textblocktransform"><svg viewBox="0 0 213.15844122715708 36.089168335118586" height="36.089168335118586" width="213.15844122715708" id="textblock"><g><svg viewBox="0 0 213.15844122715708 36.089168335118586" height="36.089168335118586" width="213.15844122715708"><g transform="matrix(1,0,0,1,0,0)"><svg width="213.15844122715708" viewBox="1.71 -39.6 311.3 52.71" height="36.089168335118586" data-palette-color="#ececea"><path d="M14.11-21.14L12.3-5.1Q12.04-2.88 11.57-0.37 11.11 2.15 10.51 4.59 9.91 7.03 9.2 9.24 8.5 11.45 7.74 13.09L7.74 13.09 3 13.09 6.91-21.14 1.71-21.14 2.56-24.46 7.47-25.88 7.57-26.86Q7.86-29.52 8.91-31.84 9.96-34.16 11.66-35.88 13.35-37.6 15.67-38.6 17.99-39.6 20.85-39.6L20.85-39.6Q22.02-39.6 23.23-39.42 24.44-39.23 25.56-38.87L25.56-38.87 23.95-34.23 23.46-33.98Q22.8-34.4 22.02-34.63 21.24-34.86 20.39-34.86L20.39-34.86Q19.12-34.86 18.16-34.34 17.21-33.81 16.53-32.86 15.84-31.91 15.43-30.59 15.01-29.27 14.84-27.69L14.84-27.69 14.65-25.88 23-25.88 21.34-21.14 14.11-21.14ZM41.04-9.23L42.33-20.68Q41.43-21.19 40.54-21.41 39.65-21.63 38.89-21.63L38.89-21.63Q37.28-21.63 35.83-20.83 34.37-20.02 33.26-18.6 32.15-17.19 31.49-15.25 30.83-13.31 30.83-11.01L30.83-11.01Q30.83-9.64 31.08-8.47 31.32-7.3 31.82-6.45 32.32-5.59 33.05-5.1 33.79-4.61 34.74-4.61L34.74-4.61Q35.54-4.61 36.36-4.96 37.18-5.3 37.99-5.92 38.79-6.54 39.56-7.39 40.33-8.23 41.04-9.23L41.04-9.23ZM50.19-26.44L47.19 0 41.16 0 40.87-5.3Q39.72-4.03 38.6-2.97 37.47-1.9 36.31-1.14 35.15-0.37 33.91 0.06 32.66 0.49 31.32 0.49L31.32 0.49Q29.37 0.49 27.87-0.38 26.36-1.25 25.34-2.7 24.31-4.15 23.78-6.07 23.24-7.98 23.24-10.08L23.24-10.08Q23.24-12.45 23.91-14.58 24.58-16.7 25.75-18.51 26.93-20.31 28.53-21.78 30.12-23.24 31.97-24.26 33.81-25.27 35.83-25.82 37.84-26.37 39.87-26.37L39.87-26.37Q41.43-26.37 42.89-26.03 44.36-25.68 45.8-25.05L45.8-25.05 50.19-26.44ZM53.51-1.39L55.22-6.37 55.68-6.64Q57.49-5.49 59.39-4.87 61.3-4.25 63.03-4.25L63.03-4.25Q64.01-4.25 64.8-4.47 65.6-4.69 66.13-5.05 66.67-5.42 66.96-5.91 67.26-6.4 67.26-6.93L67.26-6.93Q67.26-7.64 66.78-8.18 66.3-8.72 65.51-9.19 64.72-9.67 63.72-10.11 62.71-10.55 61.66-11.04 60.62-11.52 59.61-12.12 58.61-12.72 57.82-13.51 57.03-14.31 56.55-15.33 56.07-16.36 56.07-17.7L56.07-17.7Q56.07-19.43 56.9-21.01 57.73-22.58 59.3-23.77 60.86-24.95 63.11-25.66 65.35-26.37 68.16-26.37L68.16-26.37Q69.84-26.37 71.69-26.09 73.53-25.81 75-25.24L75-25.24 73.29-20.26 72.72-19.97Q71.33-20.8 69.81-21.22 68.28-21.63 66.91-21.63L66.91-21.63Q65.89-21.63 65.11-21.4 64.33-21.17 63.8-20.79 63.28-20.41 63.02-19.92 62.76-19.43 62.76-18.9L62.76-18.9Q62.76-18.16 63.25-17.6 63.74-17.04 64.52-16.56 65.3-16.09 66.32-15.66 67.33-15.23 68.38-14.75 69.43-14.26 70.44-13.67 71.45-13.09 72.24-12.32 73.02-11.55 73.51-10.55 73.99-9.55 73.99-8.23L73.99-8.23Q73.99-6.59 73.21-5.03 72.43-3.47 70.91-2.23 69.38-1 67.17-0.26 64.96 0.49 62.1 0.49L62.1 0.49Q59.93 0.49 57.67 0.01 55.41-0.46 53.51-1.39L53.51-1.39ZM90.74-39.11L88.57-20.41Q89.62-21.56 90.72-22.63 91.81-23.71 93.02-24.54 94.23-25.37 95.6-25.87 96.97-26.37 98.55-26.37L98.55-26.37Q100.41-26.37 101.77-25.67 103.14-24.98 103.98-23.78 104.83-22.58 105.16-21 105.49-19.41 105.29-17.63L105.29-17.63 103.29 0 96.09 0 98.01-16.94Q98.11-17.85 97.98-18.64 97.84-19.43 97.48-20.02 97.11-20.61 96.53-20.94 95.94-21.26 95.13-21.26L95.13-21.26Q94.23-21.26 93.3-20.85 92.38-20.43 91.47-19.73 90.57-19.02 89.71-18.07 88.86-17.11 88.1-16.04L88.1-16.04 86.27 0 79.07 0 83.54-39.11 90.74-39.11ZM110.9 0L113.86-25.88 121.06-25.88 118.11 0 110.9 0ZM117.91-30.47L117.91-30.47Q117.06-30.47 116.36-30.73 115.66-30.98 115.18-31.43 114.69-31.88 114.43-32.51 114.17-33.13 114.17-33.84L114.17-33.84Q114.17-34.72 114.55-35.5 114.93-36.28 115.58-36.85 116.23-37.43 117.1-37.77 117.98-38.11 118.98-38.11L118.98-38.11Q119.84-38.11 120.53-37.84 121.23-37.57 121.72-37.11 122.21-36.65 122.46-36.02 122.72-35.4 122.72-34.67L122.72-34.67Q122.72-33.79 122.34-33.02 121.96-32.25 121.32-31.68 120.67-31.1 119.79-30.79 118.91-30.47 117.91-30.47ZM136.49 0.49L136.49 0.49Q133.58 0.49 131.48-0.44 129.38-1.37 128.01-2.92 126.65-4.47 125.99-6.49 125.33-8.52 125.33-10.72L125.33-10.72Q125.33-12.79 125.89-14.77 126.45-16.75 127.47-18.48 128.48-20.21 129.92-21.67 131.36-23.12 133.13-24.17 134.9-25.22 136.95-25.79 139-26.37 141.25-26.37L141.25-26.37Q144.13-26.37 146.23-25.44 148.33-24.51 149.71-22.95 151.09-21.39 151.75-19.36 152.4-17.33 152.4-15.11L152.4-15.11Q152.4-11.94 151.16-9.11 149.91-6.27 147.77-4.14 145.62-2 142.71-0.76 139.81 0.49 136.49 0.49ZM137.93-4.25L137.93-4.25Q139.29-4.25 140.54-4.99 141.78-5.74 142.74-7.06 143.69-8.37 144.25-10.17 144.81-11.96 144.81-14.09L144.81-14.09Q144.81-15.63 144.49-16.99 144.18-18.36 143.54-19.4 142.91-20.43 141.97-21.03 141.03-21.63 139.78-21.63L139.78-21.63Q138.39-21.63 137.15-20.86 135.9-20.09 134.95-18.75 134-17.41 133.45-15.6 132.9-13.79 132.9-11.72L132.9-11.72Q132.9-10.13 133.23-8.78 133.56-7.42 134.2-6.41 134.85-5.4 135.78-4.82 136.71-4.25 137.93-4.25ZM156.7 0L159.65-25.88 165.68-25.88 165.93-20.09Q167.05-21.34 168.2-22.49 169.35-23.63 170.58-24.49 171.81-25.34 173.19-25.85 174.57-26.37 176.18-26.37L176.18-26.37Q178.04-26.37 179.4-25.66 180.77-24.95 181.61-23.75 182.46-22.56 182.79-20.97 183.11-19.38 182.92-17.63L182.92-17.63 180.92 0 173.72 0 175.64-16.94Q175.74-17.85 175.61-18.64 175.47-19.43 175.11-20.02 174.74-20.61 174.14-20.94 173.54-21.26 172.74-21.26L172.74-21.26Q171.86-21.26 170.93-20.85 170-20.43 169.1-19.73 168.2-19.02 167.34-18.07 166.49-17.11 165.73-16.04L165.73-16.04 163.9 0 156.7 0ZM197.49-1.39L199.2-6.37 199.66-6.64Q201.47-5.49 203.37-4.87 205.28-4.25 207.01-4.25L207.01-4.25Q207.99-4.25 208.78-4.47 209.57-4.69 210.11-5.05 210.65-5.42 210.94-5.91 211.23-6.4 211.23-6.93L211.23-6.93Q211.23-7.64 210.76-8.18 210.28-8.72 209.49-9.19 208.7-9.67 207.69-10.11 206.69-10.55 205.64-11.04 204.59-11.52 203.59-12.12 202.59-12.72 201.8-13.51 201.01-14.31 200.53-15.33 200.05-16.36 200.05-17.7L200.05-17.7Q200.05-19.43 200.88-21.01 201.71-22.58 203.28-23.77 204.84-24.95 207.08-25.66 209.33-26.37 212.14-26.37L212.14-26.37Q213.82-26.37 215.67-26.09 217.51-25.81 218.97-25.24L218.97-25.24 217.27-20.26 216.7-19.97Q215.31-20.8 213.79-21.22 212.26-21.63 210.89-21.63L210.89-21.63Q209.87-21.63 209.09-21.4 208.31-21.17 207.78-20.79 207.26-20.41 207-19.92 206.74-19.43 206.74-18.9L206.74-18.9Q206.74-18.16 207.23-17.6 207.72-17.04 208.5-16.56 209.28-16.09 210.29-15.66 211.31-15.23 212.36-14.75 213.41-14.26 214.42-13.67 215.43-13.09 216.22-12.32 217-11.55 217.48-10.55 217.97-9.55 217.97-8.23L217.97-8.23Q217.97-6.59 217.19-5.03 216.41-3.47 214.88-2.23 213.36-1 211.15-0.26 208.94 0.49 206.08 0.49L206.08 0.49Q203.91 0.49 201.65 0.01 199.39-0.46 197.49-1.39L197.49-1.39ZM234.72-39.11L232.55-20.41Q233.6-21.56 234.69-22.63 235.79-23.71 237-24.54 238.21-25.37 239.58-25.87 240.94-26.37 242.53-26.37L242.53-26.37Q244.39-26.37 245.75-25.67 247.12-24.98 247.96-23.78 248.81-22.58 249.14-21 249.46-19.41 249.27-17.63L249.27-17.63 247.27 0 240.07 0 241.99-16.94Q242.09-17.85 241.96-18.64 241.82-19.43 241.46-20.02 241.09-20.61 240.5-20.94 239.92-21.26 239.11-21.26L239.11-21.26Q238.21-21.26 237.28-20.85 236.35-20.43 235.45-19.73 234.55-19.02 233.69-18.07 232.84-17.11 232.08-16.04L232.08-16.04 230.25 0 223.05 0 227.52-39.11 234.72-39.11ZM265.6 0.49L265.6 0.49Q262.69 0.49 260.6-0.44 258.5-1.37 257.13-2.92 255.76-4.47 255.1-6.49 254.44-8.52 254.44-10.72L254.44-10.72Q254.44-12.79 255-14.77 255.57-16.75 256.58-18.48 257.59-20.21 259.03-21.67 260.47-23.12 262.24-24.17 264.01-25.22 266.06-25.79 268.11-26.37 270.36-26.37L270.36-26.37Q273.24-26.37 275.34-25.44 277.44-24.51 278.82-22.95 280.2-21.39 280.86-19.36 281.52-17.33 281.52-15.11L281.52-15.11Q281.52-11.94 280.27-9.11 279.03-6.27 276.88-4.14 274.73-2 271.83-0.76 268.92 0.49 265.6 0.49ZM267.04-4.25L267.04-4.25Q268.41-4.25 269.65-4.99 270.9-5.74 271.85-7.06 272.8-8.37 273.36-10.17 273.93-11.96 273.93-14.09L273.93-14.09Q273.93-15.63 273.61-16.99 273.29-18.36 272.66-19.4 272.02-20.43 271.08-21.03 270.14-21.63 268.9-21.63L268.9-21.63Q267.5-21.63 266.26-20.86 265.01-20.09 264.06-18.75 263.11-17.41 262.56-15.6 262.01-13.79 262.01-11.72L262.01-11.72Q262.01-10.13 262.34-8.78 262.67-7.42 263.32-6.41 263.96-5.4 264.89-4.82 265.82-4.25 267.04-4.25ZM294.8-25.88L295.09-20.58Q296.21-21.85 297.36-22.91 298.51-23.97 299.69-24.74 300.88-25.51 302.13-25.94 303.39-26.37 304.76-26.37L304.76-26.37Q306.71-26.37 308.25-25.5 309.79-24.63 310.85-23.17 311.91-21.7 312.46-19.79 313.01-17.87 313.01-15.8L313.01-15.8Q313.01-13.62 312.41-11.56 311.81-9.5 310.75-7.69 309.69-5.88 308.21-4.38 306.74-2.88 304.97-1.79 303.2-0.71 301.21-0.11 299.22 0.49 297.14 0.49L297.14 0.49Q296.04 0.49 294.97 0.34 293.89 0.2 293.04-0.07L293.04-0.07 291.53 13.11 284.32 13.11 288.77-25.88 294.8-25.88ZM294.92-16.65L293.62-5.18Q294.58-4.66 295.59-4.46 296.6-4.25 297.38-4.25L297.38-4.25Q299.12-4.25 300.6-5.05 302.07-5.86 303.15-7.28 304.22-8.69 304.83-10.6 305.44-12.5 305.44-14.67L305.44-14.67Q305.44-16.14 305.16-17.35 304.88-18.55 304.35-19.43 303.83-20.31 303.07-20.79 302.32-21.26 301.36-21.26L301.36-21.26Q300.53-21.26 299.69-20.91 298.85-20.56 298.03-19.95 297.21-19.34 296.42-18.48 295.63-17.63 294.92-16.65L294.92-16.65Z" opacity="1" transform="matrix(1,0,0,1,0,0)" fill="#ececea" class="wordmark-text-0" data-fill-palette-color="quaternary" id="text-0"></path></svg></g></svg></g></svg></g></svg></g><g transform="matrix(1,0,0,1,55.83589106896261,0)"><svg viewBox="0 0 101.48665908923186 81.29662594178824" height="81.29662594178824" width="101.48665908923186"><g><svg xmlns="http://www.w3.org/2000/svg" xmlns:xlink="http://www.w3.org/1999/xlink" version="1.1" x="0" y="0" viewBox="9.224 11.142 85.12499999999999 68.19000000000001" enable-background="new 0 0 100 100" xml:space="preserve" height="81.29662594178824" width="101.48665908923186" class="icon-icon-0" data-fill-palette-color="quaternary" id="icon-0"><g fill="#ececea" data-fill-palette-color="quaternary"><g fill="#ececea" data-fill-palette-color="quaternary"><path d="M22.958 79.083h57.658M82.941 79.331c1.234 0 2.324-1 2.324-2.238V52.198c0.93 0.211 1.283 0.334 1.957 0.334 3.905 0 6.816-4.028 7.014-6.667l0.113-1.245h-0.098c0.005 0 0.014-0.231-0.025-0.359-0.06-0.19-0.177-0.321-0.312-0.444L84.18 11.924c-0.143-0.469-0.576-0.782-1.068-0.782H20.464c-0.493 0-0.929 0.324-1.071 0.797l-9.59 31.799c-0.224 0.151-0.399 0.336-0.479 0.603-0.03 0.107-0.018 0.279-0.018 0.279H9.224l0.091 1.246c0.199 2.638 3.128 6.646 7.035 6.646 0.674 0 1.028-0.104 1.958-0.313v24.895c0 1.238 1.091 2.238 2.326 2.238M70.611 44.62l-4.199-31.618h6.708l6.993 31.618H70.611zM47.05 44.62l1.389-31.618h6.446l1.327 31.618H47.05zM23.523 44.62l6.919-31.618h6.751L32.911 44.62H23.523zM22.957 72.521V49.557c0.93 1.638 3.045 2.978 5.306 2.978 2.572 0 4.634-1.735 5.849-3.668 1.213 1.933 3.308 3.668 5.881 3.668 2.572 0 4.684-1.735 5.896-3.668 1.213 1.933 3.332 3.668 5.906 3.668 2.572 0 4.696-1.735 5.91-3.668 1.212 1.933 3.337 3.668 5.908 3.668 2.574 0 4.699-1.735 5.914-3.668 1.213 1.933 3.209 3.668 5.783 3.668 2.262 0 4.373-1.34 5.303-2.978v22.964H22.957L22.957 72.521z" fill="#ececea" data-fill-palette-color="quaternary"></path></g></g><path d="M73 71.125C73 74.37 70.37 77 67.125 77l0 0c-3.245 0-5.875-2.63-5.875-5.875v-7.75c0-3.245 2.63-5.875 5.875-5.875l0 0C70.37 57.5 73 60.13 73 63.375V71.125z" fill="#ececea" data-fill-palette-color="quaternary"></path><path d="M58 71.125C58 74.37 55.37 77 52.125 77l0 0c-3.245 0-5.875-2.63-5.875-5.875v-7.75c0-3.245 2.63-5.875 5.875-5.875l0 0C55.37 57.5 58 60.13 58 63.375V71.125z" fill="#ececea" data-fill-palette-color="quaternary"></path><path d="M43 71.125C43 74.37 40.37 77 37.125 77l0 0c-3.245 0-5.875-2.63-5.875-5.875v-7.75c0-3.245 2.63-5.875 5.875-5.875l0 0C40.37 57.5 43 60.13 43 63.375V71.125z" fill="#ececea" data-fill-palette-color="quaternary"></path></svg></g></svg></g><g></g></svg></g></svg></g></svg></g></svg></g><defs></defs></svg><rect width="342.8515585177538" height="342.8515585177538" fill="none" stroke="none" visibility="hidden"></rect></g></svg></g></svg>